<svg width="36" height="38" viewBox="0 0 36 38" fill="none" xmlns="http://www.w3.org/2000/svg">
<path d="M33.39 1C26.5629 1 20.5586 4.48637 18.0129 10.0129C15.4543 4.48637 9.48857 1 2.66143 1C2.21143 1 0.488571 1.02582 0.0385714 1.05165V2.1363H0V27.8709C0.437143 27.858 0.874286 27.8321 1.32429 27.8321C6.41571 27.8321 10.1314 28.9426 12.6514 31.1248C9.99 29.9756 6.93 29.4075 3.94714 29.4075C3.49714 29.4075 0.488571 29.4333 0.0514286 29.4591V32.2095C0.488571 32.1966 3.49714 32.2095 3.94714 32.1836C10.2857 31.8479 14.1429 34.4304 16.7143 37.0129H19.3243C21.8957 34.4304 25.7529 31.8479 32.0914 32.1836C32.5543 32.2095 35.55 32.1966 35.9871 32.2095V29.4591C35.55 29.4333 32.5286 29.4075 32.0914 29.4075C29.07 29.4075 25.9714 29.9885 23.2843 31.1636C25.8043 28.9555 29.5329 27.8321 34.6629 27.8321C35.1257 27.8321 35.55 27.858 35.9871 27.8709V1.05165C35.55 1.02582 33.8143 1 33.3771 1H33.39ZM14.0529 9.23816C15.8271 10.6844 16.5214 12.5825 16.7143 15.0488H16.7529V31.4864C14.1686 26.5667 8.70429 23.3773 2.57143 23.0029V5.88092C2.57143 5.88092 2.63571 5.88092 2.66143 5.88092C7.79143 5.88092 11.5329 7.01722 14.0657 9.22525L14.0529 9.23816ZM33.4286 23.0029C27.36 23.3773 21.9471 26.4892 19.3243 31.3056V14.6485C19.5686 12.3759 20.3143 10.6069 21.9857 9.23816C24.5057 7.01722 28.2471 5.89383 33.39 5.89383C33.39 5.89383 33.4157 5.89383 33.4286 5.89383V23.0158V23.0029Z" fill="#333333"/>
</svg>
