<svg width="40" height="42" viewBox="0 0 40 42" fill="none" xmlns="http://www.w3.org/2000/svg">
<g clip-path="url(#clip0_33_1096)">
<path d="M40 19.4L35.7105 14.8594L34.4345 13.5273L32.2625 15.8334L17.032 31.89L15.2266 39.3095L15.2809 39.6103L15.5659 39.6676L22.5975 37.7626L31.9775 27.8651L34.353 25.3728L40 19.4Z" fill="#333333"/>
<path d="M13.9103 26.618H20.1274L21.5934 25.0711H13.9239V15.8325H22.6794V23.9252L24.1454 22.3783V15.8182H30.3626L31.8286 14.2712H24.159V4.91802H33.0232V13.0108L33.1182 12.9105L34.3806 11.3779V3.5H2.22266V37.4036H12.4442H14.2904L14.6433 35.9712H13.9103V26.618ZM3.5801 4.93234H12.4442V14.2855H3.5801V4.93234ZM12.4442 35.9712H3.5801V26.618H12.4442V35.9712Z" fill="#333333"/>
<path d="M34.3538 37.4027V27.3906L24.8652 37.4027H34.3538Z" fill="#333333"/>
</g>
<defs>
<clipPath id="clip0_33_1096">
<rect width="37.7778" height="36.1667" fill="white" transform="translate(2.22266 3.5)"/>
</clipPath>
</defs>
</svg>
