<svg width="36" height="36" viewBox="0 0 36 36" fill="none" xmlns="http://www.w3.org/2000/svg">
<g clip-path="url(#clip0_33_1109)">
<path d="M28.5 -0.00115907C28.5 3.89917 28.3219 28.9913 28.3219 31.7475C28.3219 34.5037 27.3219 35.9988 25.6644 35.9988C24.0068 35.9988 23.0068 34.5557 23.0068 31.7475C23.0068 28.6012 24.3767 26.001 25.089 21.7236C23.0068 20.7876 20.2671 18.2394 20.2671 15.2491C20.2808 9.0996 23.2945 -0.00115907 28.226 -0.00115907H28.5ZM14.637 6.49938C14.6233 6.86341 14.637 7.70848 14.637 7.79949C14.637 8.16352 14.3356 8.44955 13.9521 8.44955C13.5685 8.44955 13.2671 8.16352 13.2671 7.79949V-0.00115907H11.8973V7.79949C11.8973 8.16352 11.5959 8.44955 11.2123 8.44955C10.8288 8.44955 10.5274 8.16352 10.5274 7.79949V-0.00115907H9.15753V7.79949C9.15753 8.16352 8.85616 8.44955 8.4726 8.44955C8.08904 8.44955 7.78767 8.16352 7.78767 7.79949C7.78767 7.66948 7.78767 6.83741 7.78767 6.49938C7.78767 6.47338 7.78767 0.0248431 7.78767 -0.00115907H6.5C6.5 -0.00115907 6.5 9.1126 6.5 9.1256C6.55479 11.9988 7.63699 13.377 9.78767 13.884C9.56849 16.0552 9.32192 18.4474 9.03425 20.5796C8.41781 24.8309 7.96575 28.9783 7.96575 31.7345C7.96575 34.4907 9.23973 35.9858 11.3219 35.9858C13.4041 35.9858 14.6781 34.5427 14.6781 31.7345C14.6781 28.9263 14.226 24.8309 13.6096 20.5796C13.3219 18.4344 13.0753 16.0422 12.8425 13.858C14.911 13.312 15.9521 11.9338 16.0068 9.1126C16.0068 9.0996 16.0068 -0.00115907 16.0068 -0.0141602H14.637C14.637 -0.0141602 14.637 6.46038 14.637 6.48638V6.49938Z" fill="#333333"/>
</g>
<defs>
<clipPath id="clip0_33_1109">
<rect width="22" height="36" fill="white" transform="translate(6.5)"/>
</clipPath>
</defs>
</svg>
