<svg width="37" height="37" viewBox="0 0 37 37" fill="none" xmlns="http://www.w3.org/2000/svg">
<g clip-path="url(#clip0_33_1120)">
<path d="M18.9751 0C9.33673 0 0.950265 7.3607 0.950265 18.0315C0.950265 21.9612 2.09662 25.4375 3.99715 28.279C5.83734 31.8913 0 36.9093 0 36.9093C3.57481 37.3779 7.55687 35.4583 10.1362 33.8864C12.7758 35.3525 15.8076 36.1687 18.96 36.1687C28.5532 36.1687 37 28.7022 37 18.0315C37 7.3607 28.5683 0 18.9751 0ZM31.042 26.2083C28.3722 28.8836 24.4052 30.2892 18.9751 30.2892C13.545 30.2892 9.6384 28.8685 6.90828 26.2083C4.81166 24.2435 3.75581 21.5833 3.75581 18.0315C3.75581 14.4796 4.81166 11.8799 6.90828 9.91503C9.62332 7.23979 13.53 5.87949 18.9751 5.87949C24.4203 5.87949 28.3722 7.23979 31.042 9.91503C33.1386 11.8799 34.1945 14.4947 34.1945 18.0315C34.1945 21.5682 33.1386 24.2435 31.042 26.2083ZM13.4545 18.0919C13.4545 19.7394 12.1121 21.0846 10.468 21.0846C8.82389 21.0846 7.48145 19.7394 7.48145 18.0919C7.48145 16.4444 8.82389 15.0993 10.468 15.0993C12.1121 15.0993 13.4545 16.4444 13.4545 18.0919ZM21.9617 18.0919C21.9617 19.7394 20.6192 21.0846 18.9751 21.0846C17.331 21.0846 15.9886 19.7394 15.9886 18.0919C15.9886 16.4444 17.331 15.0993 18.9751 15.0993C20.6192 15.0993 21.9617 16.4444 21.9617 18.0919ZM30.4688 18.0919C30.4688 19.7394 29.1264 21.0846 27.4823 21.0846C25.8382 21.0846 24.4957 19.7394 24.4957 18.0919C24.4957 16.4444 25.8382 15.0993 27.4823 15.0993C29.1264 15.0993 30.4688 16.4444 30.4688 18.0919Z" fill="#333333"/>
</g>
<defs>
<clipPath id="clip0_33_1120">
<rect width="37" height="37" fill="white"/>
</clipPath>
</defs>
</svg>
