<svg width="36" height="36" viewBox="0 0 36 36" fill="none" xmlns="http://www.w3.org/2000/svg">
<path d="M18.034 0.0105287H17.9817C9.18495 -0.368585 1.51232 9.55373 1.00256 19.5545C0.976414 19.9074 1.15941 34 1.15941 34H4.54477C9.70778 33.7516 13.7206 31.3724 13.6552 25.2804C13.6029 20.7833 10.0346 16.7177 5.47281 15.881C6.53155 10.8087 8.96274 7.34441 10.4398 5.7103C12.0475 3.91932 15.3544 3.12187 17.9817 3.14802H18.047C20.6612 3.12187 23.9812 3.91932 25.5759 5.7103C27.066 7.34441 29.5102 10.8218 30.5559 15.8941C25.9288 16.8222 22.3474 21.0317 22.3996 25.6072C22.465 31.7645 26.5431 33.8562 31.7584 34H35V20.9402C34.8954 10.5865 27.1313 -0.381658 18.034 0.0105287Z" fill="#333333"/>
</svg>
